<?xml version="1.0" standalone="no"?>
<!DOCTYPE svg PUBLIC "-//W3C//DTD SVG 20010904//EN"
 "http://www.w3.org/TR/2001/REC-SVG-20010904/DTD/svg10.dtd">
<svg version="1.0" xmlns="http://www.w3.org/2000/svg"
 width="810.000000pt" height="810.000000pt" viewBox="0 0 810.000000 810.000000"
 preserveAspectRatio="xMidYMid meet">
<metadata>
Created by potrace 1.11, written by Peter Selinger 2001-2013
</metadata>
<g transform="translate(0.000000,810.000000) scale(0.100000,-0.100000)"
fill="#000000" stroke="none">
<path d="M3745 8094 c-1429 -116 -2678 -955 -3318 -2229 -96 -191 -152 -327
-222 -540 -145 -436 -205 -811 -205 -1275 0 -788 213 -1523 633 -2180 533
-834 1352 -1444 2310 -1720 702 -202 1512 -202 2214 0 383 110 744 273 1073
483 768 491 1355 1235 1650 2092 165 476 228 890 217 1417 -9 461 -68 796
-216 1229 -399 1170 -1340 2111 -2510 2510 -281 96 -510 150 -801 190 -123 16
-218 21 -465 24 -170 1 -332 1 -360 -1z m2956 -2755 l219 -227 -1407 -1368
c-775 -752 -1556 -1515 -1736 -1694 -180 -179 -331 -326 -335 -328 -4 -1 -394
385 -867 858 l-860 860 283 282 282 283 583 -583 583 -583 1459 1420 1460
1420 58 -57 c32 -31 157 -159 278 -283z"/>
</g>
</svg>
