<?xml version="1.0" standalone="no"?>
<!DOCTYPE svg PUBLIC "-//W3C//DTD SVG 20010904//EN"
 "http://www.w3.org/TR/2001/REC-SVG-20010904/DTD/svg10.dtd">
<svg version="1.0" xmlns="http://www.w3.org/2000/svg"
 width="640.000000pt" height="640.000000pt" viewBox="0 0 640.000000 640.000000"
 preserveAspectRatio="xMidYMid meet">
<metadata>
Created by potrace 1.11, written by Peter Selinger 2001-2013
</metadata>
<g transform="translate(0.000000,640.000000) scale(0.100000,-0.100000)"
fill="#000000" stroke="none">
<path d="M2950 6389 c-409 -33 -772 -132 -1145 -313 -343 -167 -596 -347 -865
-616 -524 -523 -837 -1177 -922 -1925 -16 -142 -16 -528 0 -670 72 -632 301
-1182 701 -1685 151 -190 413 -435 630 -590 195 -138 508 -305 721 -383 740
-273 1520 -273 2260 0 213 78 526 245 721 383 217 155 479 400 630 590 400
503 629 1053 701 1685 16 142 16 528 0 670 -72 632 -301 1182 -701 1685 -151
190 -413 435 -630 590 -195 138 -508 305 -721 383 -448 166 -920 233 -1380
196z m1690 -1789 l0 -180 -565 0 -565 0 0 -1410 0 -1410 -215 0 -215 0 0 1410
0 1410 -565 0 -565 0 0 180 0 180 1345 0 1345 0 0 -180z"/>
</g>
</svg>
